Format : AVI
Format/Info : Audio Video Interleave
File size : 1.08 GiB
Duration : 1h 14mn
Overall bit rate : 2 082 Kbps
Writing application : Nandub v1.0rc1
Writing library : VirtualDub build 32839/release

Video
ID : 0
Format : MPEG-4 Visual
Format profile : Advanced Simple@L5
Format settings, BVOP : Yes
Format settings, QPel : No
Format settings, GMC : No warppoints
Format settings, Matrix : Custom
Codec ID : XVID
Codec ID/Hint : XviD
Duration : 1h 14mn
Bit rate : 1 945 Kbps
Width : 688 pixels
Height : 384 pixels
Display aspect ratio : 16:9
Frame rate : 25.000 fps
Color space : YUV
Chroma subsampling : 4:2:0
Bit depth : 8 bits
Scan type : Progressive
Bits/(Pixel*Frame) : 0.294
Stream size : 1.01 GiB (93%)
Writing library : XviD 1.2.1 (UTC 2008-12-04)

Audio
ID : 1
Format : MPEG Audio
Format version : Version 1
Format profile : Layer 3
Mode : Joint stereo
Mode extension : MS Stereo
Codec ID : 55
Codec ID/Hint : MP3
Duration : 1h 14mn
Bit rate mode : Constant
Bit rate : 128 Kbps
Channel(s) : 2 channels
Sampling rate : 44.1 KHz
Stream size : 68.1 MiB (6%)
Alignment : Split accross interleaves
Interleave, duration : 40 ms (1.00 video frame)
Interleave, preload duration : 500 ms



 
http://www.imdb.com/title/tt0377981/




89524873606771859129.png


Garden gnomes Gnomeo (voice of McAvoy) and Juliet (voice of Blunt) have as many obstacles to overcome as their quasi namesakes when they are caught up in a feud between neighbors. But with plastic pink flamingos and lawnmower races in the mix, can this young couple find lasting happiness?

Users: 5.5/10 (991 votes) 17 reviews | Critics: 69 reviews Metascore: 53/100 (based on 28 reviews from Metacritic.com)

Director:
Kelly Asbury
Writers:
William Shakespeare (based on the original play by), Kelly Asbury (screenplay), and 8 more credits »
Stars:
James McAvoy, Emily Blunt and Maggie Smith



VIDEO: CiNEDUB...Thanks

AUDIO: Imagine and friend ....Thanks guys

Ran a few filters dropped the brightness/contrast ,dropped the saturation levels .slight smoother filter and a few other things .

Enjoy this one for the kids and big kids

Greetz to Imagine ,Flawl3ss ,Santi ,Vision ,Kingdom,BDK,DiGiTALiNK,LEGION,Classified,iLLUSiON ,THC,WBZ,Rx,iLLUSiON
